<?xml version="1.0" encoding="UTF-8"?>
<svg xmlns="http://www.w3.org/2000/svg" xmlns:xlink="http://www.w3.org/1999/xlink" viewBox="0 0 750 500">
  <defs>
    <style>
      .cls-1 {
        fill: none;
      }

      .cls-2 {
        clip-path: url(#clippath);
      }

      .cls-3 {
        fill: #e5feff;
      }

      .cls-4 {
        mix-blend-mode: overlay;
      }

      .cls-5 {
        fill: url(#radial-gradient);
      }

      .cls-6 {
        isolation: isolate;
      }
    </style>
    <clipPath id="clippath">
      <rect class="cls-1" width="750" height="500"/>
    </clipPath>
    <radialGradient id="radial-gradient" cx="379.52" cy="418.03" fx="379.52" fy="418.03" r="935.77" gradientTransform="translate(0 200.54) scale(1 .52)" gradientUnits="userSpaceOnUse">
      <stop offset=".14" stop-color="#c338ff"/>
      <stop offset=".2" stop-color="#bb35fa"/>
      <stop offset=".31" stop-color="#a72def"/>
      <stop offset=".43" stop-color="#8621dc"/>
      <stop offset=".56" stop-color="#5810c2"/>
      <stop offset=".68" stop-color="#2b00a9"/>
      <stop offset="1" stop-color="#160063"/>
    </radialGradient>
  </defs>
  <g class="cls-6">
    <g id="BACKGROUND_2" data-name="BACKGROUND 2">
      <g class="cls-2">
        <rect class="cls-5" x="-9.64" y="-6.42" width="769.27" height="512.85"/>
        <g class="cls-4">
          <circle class="cls-3" cx="30.45" cy="251.24" r="1.92"/>
          <path class="cls-3" d="m100.03,159.32c0,.8-.65,1.44-1.44,1.44s-1.44-.65-1.44-1.44.65-1.44,1.44-1.44,1.44.65,1.44,1.44Z"/>
          <circle class="cls-3" cx="92.79" cy="241.31" r="1.49"/>
          <circle class="cls-3" cx="146.43" cy="270.5" r="2.18"/>
          <path class="cls-3" d="m146.43,215.45c0,.6-.49,1.09-1.09,1.09s-1.09-.49-1.09-1.09.49-1.09,1.09-1.09,1.09.49,1.09,1.09Z"/>
          <path class="cls-3" d="m600.16,248.04c0,.45-.36.81-.81.81s-.81-.36-.81-.81.36-.81.81-.81.81.36.81.81Z"/>
          <path class="cls-3" d="m641.12,216.71c0,1.04-.84,1.89-1.89,1.89s-1.89-.84-1.89-1.89.84-1.89,1.89-1.89,1.89.84,1.89,1.89Z"/>
          <path class="cls-3" d="m615.75,167.65c0,1.04-.84,1.89-1.89,1.89s-1.88-.84-1.88-1.89.84-1.88,1.88-1.88,1.89.84,1.89,1.88Z"/>
          <path class="cls-3" d="m651.61,219.53c0,.58-.47,1.05-1.05,1.05s-1.05-.47-1.05-1.05.47-1.05,1.05-1.05,1.05.47,1.05,1.05Z"/>
          <path class="cls-3" d="m589.89,122.52c0,.58-.47,1.05-1.05,1.05s-1.05-.47-1.05-1.05.47-1.05,1.05-1.05,1.05.47,1.05,1.05Z"/>
          <path class="cls-3" d="m729.88,109.18c0,.58-.47,1.05-1.05,1.05s-1.05-.47-1.05-1.05.47-1.05,1.05-1.05,1.05.47,1.05,1.05Z"/>
          <path class="cls-3" d="m520.47,158.52c0,.8-.65,1.45-1.45,1.45s-1.45-.65-1.45-1.45.65-1.45,1.45-1.45,1.45.65,1.45,1.45Z"/>
          <path class="cls-3" d="m711.5,155.93c0,.8-.65,1.45-1.45,1.45s-1.45-.65-1.45-1.45.65-1.45,1.45-1.45,1.45.65,1.45,1.45Z"/>
          <path class="cls-3" d="m536.68,137.86c0,.5-.41.91-.91.91s-.91-.41-.91-.91.41-.91.91-.91.91.41.91.91Z"/>
          <circle class="cls-3" cx="621.76" cy="299.09" r=".84"/>
          <path class="cls-3" d="m529.88,203.71c0,.81-.66,1.47-1.47,1.47s-1.47-.66-1.47-1.47.66-1.47,1.47-1.47,1.47.66,1.47,1.47Z"/>
          <circle class="cls-3" cx="685.62" cy="259.15" r="1.88"/>
          <path class="cls-3" d="m67.22,85.48c0,.78-.63,1.41-1.41,1.41s-1.41-.63-1.41-1.41.63-1.41,1.41-1.41,1.41.63,1.41,1.41Z"/>
          <circle class="cls-3" cx="22.49" cy="166.24" r="1.41"/>
          <path class="cls-3" d="m22.49,59.88c0,1.06-.86,1.92-1.92,1.92s-1.92-.86-1.92-1.92.86-1.92,1.92-1.92,1.92.86,1.92,1.92Z"/>
          <path class="cls-3" d="m33.9,82.45c0,.84-.68,1.52-1.52,1.52s-1.52-.68-1.52-1.52.68-1.52,1.52-1.52,1.52.68,1.52,1.52Z"/>
          <circle class="cls-3" cx="211.57" cy="205.51" r="2.12"/>
          <circle class="cls-3" cx="61.24" cy="209.14" r="2.12"/>
          <circle class="cls-3" cx="197.62" cy="223.94" r="1.19"/>
          <circle class="cls-3" cx="731.25" cy="214.21" r="1.18"/>
          <path class="cls-3" d="m647.79,119.19c0,.92-.75,1.67-1.67,1.67s-1.67-.75-1.67-1.67.75-1.67,1.67-1.67,1.67.75,1.67,1.67Z"/>
          <path class="cls-3" d="m730.54,60.75c0,.94-.77,1.71-1.71,1.71s-1.71-.77-1.71-1.71.77-1.71,1.71-1.71,1.71.77,1.71,1.71Z"/>
          <path class="cls-3" d="m710.6,69.71c0,.31-.25.56-.56.56s-.56-.25-.56-.56.25-.56.56-.56.56.25.56.56Z"/>
          <path class="cls-3" d="m178.91,130.76c0,.58-.47,1.05-1.05,1.05s-1.05-.47-1.05-1.05.47-1.05,1.05-1.05,1.05.47,1.05,1.05Z"/>
          <path class="cls-3" d="m65.74,136.26c0,.8-.65,1.45-1.45,1.45s-1.45-.65-1.45-1.45.65-1.45,1.45-1.45,1.45.65,1.45,1.45Z"/>
          <circle class="cls-3" cx="157.67" cy="183.21" r="1.18"/>
          <path class="cls-3" d="m74.21,88.19c0,.92-.75,1.67-1.67,1.67s-1.67-.75-1.67-1.67.75-1.67,1.67-1.67,1.67.75,1.67,1.67Z"/>
          <path class="cls-3" d="m159.64,91.29c0,.31-.25.56-.56.56s-.56-.25-.56-.56.25-.56.56-.56.56.25.56.56Z"/>
          <path class="cls-3" d="m726.38,55.96c0,.75-.61,1.36-1.36,1.36s-1.36-.61-1.36-1.36.61-1.36,1.36-1.36,1.36.61,1.36,1.36Z"/>
          <path class="cls-3" d="m500.55,78.14c0,1.04-.84,1.89-1.89,1.89s-1.88-.84-1.88-1.89.84-1.89,1.88-1.89,1.89.84,1.89,1.89Z"/>
          <path class="cls-3" d="m475.17,29.07c0,1.04-.84,1.89-1.88,1.89s-1.89-.84-1.89-1.89.84-1.89,1.89-1.89,1.88.84,1.88,1.89Z"/>
          <path class="cls-3" d="m511.04,80.96c0,.58-.47,1.05-1.05,1.05s-1.05-.47-1.05-1.05.47-1.05,1.05-1.05,1.05.47,1.05,1.05Z"/>
          <circle class="cls-3" cx="178.74" cy="90.11" r="1.05"/>
          <path class="cls-3" d="m319.77,76.77c0,.58-.47,1.05-1.05,1.05s-1.05-.47-1.05-1.05.47-1.05,1.05-1.05,1.05.47,1.05,1.05Z"/>
          <path class="cls-3" d="m379.89,19.95c0,.8-.65,1.45-1.45,1.45s-1.45-.65-1.45-1.45.65-1.45,1.45-1.45,1.45.65,1.45,1.45Z"/>
          <path class="cls-3" d="m570.93,17.36c0,.8-.65,1.45-1.45,1.45s-1.45-.65-1.45-1.45.65-1.45,1.45-1.45,1.45.65,1.45,1.45Z"/>
          <path class="cls-3" d="m126.57,105.46c0,.5-.41.91-.91.91s-.91-.41-.91-.91.41-.91.91-.91.91.41.91.91Z"/>
          <path class="cls-3" d="m458.76,103.07c0,.8-.65,1.44-1.44,1.44s-1.44-.65-1.44-1.44.65-1.44,1.44-1.44,1.44.65,1.44,1.44Z"/>
          <path class="cls-3" d="m210.4,50.11c0,.6-.49,1.09-1.09,1.09s-1.09-.49-1.09-1.09.49-1.09,1.09-1.09,1.09.49,1.09,1.09Z"/>
          <circle class="cls-3" cx="87.82" cy="14.3" r="1.41"/>
          <path class="cls-3" d="m55.91,11.28c0,.84-.68,1.52-1.52,1.52s-1.52-.68-1.52-1.52.68-1.52,1.52-1.52,1.52.68,1.52,1.52Z"/>
          <path class="cls-3" d="m127.33,43.8c0,1.17-.95,2.12-2.12,2.12s-2.12-.95-2.12-2.12.95-2.12,2.12-2.12,2.12.95,2.12,2.12Z"/>
          <path class="cls-3" d="m268.67,46.29c0,.58-.47,1.05-1.05,1.05s-1.05-.47-1.05-1.05.47-1.05,1.05-1.05,1.05.47,1.05,1.05Z"/>
          <path class="cls-3" d="m278.99,97.96c0,.8-.65,1.45-1.45,1.45s-1.45-.65-1.45-1.45.65-1.45,1.45-1.45,1.45.65,1.45,1.45Z"/>
          <circle class="cls-3" cx="221.63" cy="17.87" r="1.18"/>
          <path class="cls-3" d="m96.23,17.02c0,.92-.75,1.67-1.67,1.67s-1.67-.75-1.67-1.67.75-1.67,1.67-1.67,1.67.75,1.67,1.67Z"/>
          <path class="cls-3" d="m181.66,20.12c0,.31-.25.56-.56.56s-.56-.25-.56-.56.25-.56.56-.56.56.25.56.56Z"/>
          <path class="cls-3" d="m201.8,18.94c0,.58-.47,1.05-1.05,1.05s-1.05-.47-1.05-1.05.47-1.05,1.05-1.05,1.05.47,1.05,1.05Z"/>
          <path class="cls-3" d="m148.59,34.28c0,.5-.41.91-.91.91s-.91-.41-.91-.91.41-.91.91-.91.91.41.91.91Z"/>
          <path class="cls-3" d="m389.3,65.14c0,.81-.66,1.47-1.47,1.47s-1.47-.66-1.47-1.47.66-1.47,1.47-1.47,1.47.66,1.47,1.47Z"/>
          <circle class="cls-3" cx="590.67" cy="75.63" r="1.18"/>
          <path class="cls-3" d="m237.69,86.78c0,.92-.75,1.67-1.67,1.67s-1.67-.75-1.67-1.67.75-1.67,1.67-1.67,1.67.75,1.67,1.67Z"/>
          <path class="cls-3" d="m437.74,45.92c0,.94-.77,1.71-1.71,1.71s-1.71-.77-1.71-1.71.77-1.71,1.71-1.71,1.71.77,1.71,1.71Z"/>
          <path class="cls-3" d="m689.2,14.07c0,.94-.77,1.71-1.71,1.71s-1.71-.77-1.71-1.71.77-1.71,1.71-1.71,1.71.77,1.71,1.71Z"/>
          <path class="cls-3" d="m679.36,30.55c0,.94-.77,1.71-1.71,1.71s-1.71-.77-1.71-1.71.77-1.71,1.71-1.71,1.71.77,1.71,1.71Z"/>
          <path class="cls-3" d="m573.96,189.26c0,.94-.77,1.71-1.71,1.71s-1.71-.77-1.71-1.71.77-1.71,1.71-1.71,1.71.77,1.71,1.71Z"/>
          <path class="cls-3" d="m300.5,37.3c0,.31-.25.56-.56.56s-.56-.25-.56-.56.25-.56.56-.56.56.25.56.56Z"/>
          <path class="cls-3" d="m316.28,23.55c0,.75-.61,1.36-1.36,1.36s-1.36-.61-1.36-1.36.61-1.36,1.36-1.36,1.36.61,1.36,1.36Z"/>
        </g>
      </g>
    </g>
  </g>
</svg>